<svg width="36" height="26" viewBox="0 0 36 26" fill="none" xmlns="http://www.w3.org/2000/svg">
<path fill-rule="evenodd" clip-rule="evenodd" d="M2 6.28986V2H22V2.77778C22 3.33006 22.4477 3.77778 23 3.77778C23.5523 3.77778 24 3.33006 24 2.77778V2H34V6.29047C31.1087 7.15157 29.0001 9.82759 29.0001 13C29.0001 16.1724 31.1087 18.8484 34 19.7095V24H24V23.2222C24 22.6699 23.5523 22.2222 23 22.2222C22.4477 22.2222 22 22.6699 22 23.2222V24H2V19.7101C4.89152 18.8496 7.00007 16.171 7.00007 13C7.00007 9.82895 4.89152 7.15038 2 6.28986ZM23 26H1C0.447716 26 0 25.5523 0 25V18.0001L6.96182e-05 18C2.76149 18 5.00007 15.7614 5.00007 13C5.00007 10.2386 2.76149 8 6.96182e-05 8L0 7.99993V1C0 0.447715 0.447715 0 1 0H23H35C35.5523 0 36 0.447715 36 1V7.00003C36 7.5523 35.5478 7.98958 35.0064 8.09875C32.721 8.55959 31.0001 10.5788 31.0001 13C31.0001 15.4212 32.721 17.4404 35.0064 17.9013C35.5478 18.0104 36 18.4477 36 19V25C36 25.5523 35.5523 26 35 26H23ZM22 18.7778C22 19.3301 22.4477 19.7778 23 19.7778C23.5523 19.7778 24 19.3301 24 18.7778V15.2222C24 14.6699 23.5523 14.2222 23 14.2222C22.4477 14.2222 22 14.6699 22 15.2222V18.7778ZM22 10.7778C22 11.3301 22.4477 11.7778 23 11.7778C23.5523 11.7778 24 11.3301 24 10.7778V7.22222C24 6.66994 23.5523 6.22222 23 6.22222C22.4477 6.22222 22 6.66994 22 7.22222V10.7778Z" fill="white"/>
</svg>
